<svg width="34" height="50" fill="none" xmlns="http://www.w3.org/2000/svg"><path d="M13.303 36.792H10.17a.732.732 0 100 1.465h3.132a.732.732 0 100-1.465z" fill="#0B65A1"/><path d="M31.696 27.828l-4.577-1.766-2.339-2.338a.73.73 0 00-.568-.213v-1.995a8.522 8.522 0 002.198-4.33c.004-.014.029-.039.046-.046.204.014.41 0 .615-.041 1.065-.218 1.838-1.208 1.838-2.354v-.61c0-.684-.286-1.31-.749-1.747.753-4.018.157-7.289-1.73-9.469C24.614.825 21.686-.176 17.96.025c-3.498.19-5.732 1.819-6.396 2.372-.932.116-3.69.785-3.69 4.622 0 2.171.358 3.968.602 4.938-.826.362-1.385 1.21-1.385 2.187v.6c0 1.147.773 2.137 1.838 2.355.204.041.41.055.615.041.017.007.041.032.045.046a8.524 8.524 0 002.198 4.33v1.995a.73.73 0 00-.568.213l-2.338 2.338-4.577 1.766A5.428 5.428 0 00.833 33.11l.648 16.186a.732.732 0 001.464-.059l-.649-16.186a3.959 3.959 0 01.187-1.372l2.664 2.663a3.939 3.939 0 011.161 2.804v12.12a.732.732 0 001.465 0v-12.12c0-1.45-.565-2.814-1.59-3.84L3.22 30.345c.422-.502.97-.903 1.61-1.15l4.308-1.662 3.279 4.92a2.29 2.29 0 001.915 1.023c.463 0 .912-.14 1.291-.4l-.703 16.16a.732.732 0 001.463.063l.65-14.931h1.934l.65 14.931a.732.732 0 101.463-.064l-.703-16.158a2.286 2.286 0 001.52.388 2.29 2.29 0 001.686-1.012l3.28-4.92 4.306 1.662c.641.247 1.19.648 1.61 1.15l-2.962 2.962a5.394 5.394 0 00-1.59 3.84v12.12a.732.732 0 101.465 0v-12.12c0-1.06.412-2.055 1.161-2.804l2.664-2.663c.14.434.206.897.187 1.372l-.648 16.186a.732.732 0 101.463.059l.649-16.186a5.43 5.43 0 00-3.472-5.283zM11.029 16.92c-.137-.752-.833-1.297-1.584-1.242a.818.818 0 01-.223-.015c-.38-.078-.667-.473-.667-.92v-.6c0-.444.291-.83.677-.899a.83.83 0 01.817.314c.14.183.327.313.54.378.312.094.656.039.92-.148a6.009 6.009 0 001.614-1.705.732.732 0 00-1.237-.784 4.6 4.6 0 01-.94 1.076 2.29 2.29 0 00-.987-.535 19.208 19.208 0 01-.621-4.822c0-3.055 2.275-3.178 2.53-3.181.188 0 .37-.074.507-.205.02-.02 2.069-1.95 5.664-2.145 3.258-.176 5.776.65 7.283 2.39 1.534 1.772 2.034 4.495 1.46 7.898a3.478 3.478 0 00-.863.058l-.818-1.965a.733.733 0 00-.862-.427c-.078.02-7.87 1.997-11.152-2.09a.732.732 0 10-1.142.917c3.317 4.13 9.962 3.159 12.04 2.732l.642 1.54c.241.58.859.896 1.469.753.269-.064.546-.072.67-.047.386.077.678.459.678.888v.61c0 .446-.287.84-.668.918a.817.817 0 01-.223.015c-.749-.055-1.446.491-1.584 1.243A7.085 7.085 0 0118 22.726a7.085 7.085 0 01-6.97-5.805zm3.889 14.846a.83.83 0 01-1.282-.127l-3.305-4.957 1.44-1.44 5.157 4.514-2.01 2.01zm2.179 1.136l.056-1.3.847-.846.846.846.056 1.3h-1.805zM18 28.748l-4.748-4.154v-1.843A8.528 8.528 0 0018 24.191c1.743 0 3.38-.527 4.747-1.44v1.843L18 28.748zm4.364 2.892a.83.83 0 01-1.283.127l-2.01-2.01 5.158-4.513 1.44 1.44-3.305 4.956z" fill="#0B65A1"/></svg>